<svg id="Layer_1" data-name="Layer 1" xmlns="http://www.w3.org/2000/svg" viewBox="0 0 64 64">
  <path d="M58.4,22.5a12.8,12.8,0,0,0-4.7-1.8V14.9a5,5,0,0,0,3.4-3.8,4.9,4.9,0,0,0-9.5-2.5,5,5,0,0,0,3.3,6.3v5.8l-.4.2a10.7,10.7,0,0,0-7.8,5.2c-2.5,4.2-2.2,8.3.5,12.4-1.5,1.6-3.1,3.2-4.7,4.7a10.4,10.4,0,0,0-5.1-2V22.8a10.8,10.8,0,0,0,8.1-5.1,10.7,10.7,0,0,0,.4-11.3A10.8,10.8,0,0,0,32.2.5,11.2,11.2,0,0,0,20.7,11.2,11.6,11.6,0,0,0,23,18.6l-4.4,4.5a4.1,4.1,0,0,0-1.1-.7A11.7,11.7,0,0,0,13,20.7V14.9a5,5,0,0,0,3.4-3.5A4.9,4.9,0,0,0,6.9,8.7c-.8,2.6.6,5.1,3.4,6.2v5.8l-2,.5C3.9,22.8,1.1,25.8.5,30.5S1.9,39,5.9,41.6a13,13,0,0,0,4.3,1.5v8.3l-1.9,1a5.1,5.1,0,0,0-1.2,5.7A4.9,4.9,0,0,0,12.3,61a4.9,4.9,0,0,0,4.2-3.9A5.1,5.1,0,0,0,13,51.3V43.1h.4a11.1,11.1,0,0,0,9.2-13.5,12.2,12.2,0,0,0-2-4.5l4.5-4.4a10.7,10.7,0,0,0,5.4,2.2,2,2,0,0,1,.1.7v17a2,2,0,0,1-.1.7h-.4a11.6,11.6,0,0,0-9.4,10.5A11.3,11.3,0,1,0,43,50.2a10.9,10.9,0,0,0-2.4-5.1l4.5-4.5a11.4,11.4,0,0,0,5.8,2.6v6.5A7.2,7.2,0,0,0,49,50.8a5,5,0,0,0-.9,6.4,4.9,4.9,0,0,0,6.1,1.9,4.8,4.8,0,0,0,2.9-5.6,5.2,5.2,0,0,0-3.4-3.8V43.2l1.2-.3c4.6-1.3,7.5-4.2,8.4-8.9A10.9,10.9,0,0,0,58.4,22.5ZM50.1,10.1a2.3,2.3,0,0,1,2.1-2.2,2.2,2.2,0,0,1,2.3,2.2,2.4,2.4,0,0,1-2.2,2.1A2.2,2.2,0,0,1,50.1,10.1Zm-40.6,0a2.2,2.2,0,0,1,2.2-2.2,2.2,2.2,0,1,1-2.2,2.2Zm4.3,46.1a2.2,2.2,0,1,1-4.3-.1,2.2,2.2,0,1,1,4.3.1ZM9.2,31.4A2.5,2.5,0,0,1,11.7,29a2.5,2.5,0,0,1,2.4,2.5,2.5,2.5,0,0,1-2.5,2.4A2.6,2.6,0,0,1,9.2,31.4ZM7.9,39.5a1.4,1.4,0,0,0,.5-.8,3.8,3.8,0,0,1,6-.6c.4.4.5,1,1,1.4A8.3,8.3,0,0,1,7.9,39.5Zm10.9-3-1,1.2a8.1,8.1,0,0,0-2.1-2.4c-.3-.3-.1-.4,0-.6a4.7,4.7,0,0,0,1.2-3.2,5,5,0,0,0-3.1-4.8,4.9,4.9,0,0,0-5.5.7,5.2,5.2,0,0,0-.7,7.3c.1.2.3.3,0,.6a8.1,8.1,0,0,0-2.1,2.4,8.1,8.1,0,0,1-1.6-9,8.3,8.3,0,0,1,7.5-5.2A8.2,8.2,0,0,1,19.1,28,8.1,8.1,0,0,1,18.8,36.5Zm4.7-25a8.5,8.5,0,0,1,16.8-1.1,7.6,7.6,0,0,1-2.3,7,6,6,0,0,0-1.7-2.2c-.5-.3-.4-.6-.1-1a5.1,5.1,0,0,0,.3-5.7A5.2,5.2,0,0,0,31.4,6a5.2,5.2,0,0,0-3.5,8.4c.2.3.2.4-.1.7a6,6,0,0,0-1.9,2.3A8.1,8.1,0,0,1,23.5,11.5Zm10.9-.4A2.4,2.4,0,0,1,32,13.6a2.5,2.5,0,0,1-2.5-2.5A2.4,2.4,0,0,1,32,8.8,2.3,2.3,0,0,1,34.4,11.1Zm-6.2,8.1c.3-.1.3-.4.4-.6a3.7,3.7,0,0,1,3.5-1.9,3.5,3.5,0,0,1,3.3,2.1c0,.2.1.3.3.4A8.3,8.3,0,0,1,28.2,19.2Zm0,40.7a1.5,1.5,0,0,0,.5-.7,3.8,3.8,0,0,1,6.6.1,2.1,2.1,0,0,0,.4.6A8.3,8.3,0,0,1,28.2,59.9Zm1.3-8.1A2.5,2.5,0,0,1,32,49.4a2.4,2.4,0,0,1,2.4,2.4A2.4,2.4,0,0,1,32,54.2,2.5,2.5,0,0,1,29.5,51.8ZM38,58.1a5.8,5.8,0,0,0-1.8-2.3c-.4-.3-.4-.5-.1-.8a5.3,5.3,0,0,0,.3-6.1,5.4,5.4,0,0,0-5.5-2.2,5.2,5.2,0,0,0-3,8.3.5.5,0,0,1-.1.8,5.3,5.3,0,0,0-1.9,2.3,8.3,8.3,0,0,1-.7-10.8,8.1,8.1,0,0,1,8.5-3.2,7.9,7.9,0,0,1,6.4,6.1A7.6,7.6,0,0,1,38,58.1Zm16.5-3.5a2.4,2.4,0,0,1-2.2,2.1,2.3,2.3,0,0,1-2.2-2.1,2.2,2.2,0,0,1,4.4,0ZM48.6,39.5c.2-.1.2-.3.3-.5a3.6,3.6,0,0,1,3.4-2.1,3.6,3.6,0,0,1,3.3,2,2.1,2.1,0,0,0,.4.6A8.1,8.1,0,0,1,48.6,39.5Zm1.3-8A2.4,2.4,0,0,1,52.3,29a2.5,2.5,0,1,1-2.4,2.5Zm9.5,5-1,1.2a6.6,6.6,0,0,0-2-2.4c-.3-.3-.2-.4,0-.6a4.8,4.8,0,0,0,1.1-3.6,5.2,5.2,0,1,0-9.3,3.6c.2.2.3.4,0,.6a6.6,6.6,0,0,0-2,2.4,8.1,8.1,0,0,1-1.7-8.9,8.5,8.5,0,0,1,7.6-5.3A8.2,8.2,0,0,1,59.7,28,7.9,7.9,0,0,1,59.4,36.5Z"/>
</svg>
