<svg id="Layer_1" data-name="Layer 1" xmlns="http://www.w3.org/2000/svg" viewBox="0 0 64 64">
  <g>
    <path d="M20.9,45.3H14a1.3,1.3,0,0,0-1.5,1.5v6.9A1.3,1.3,0,0,0,14,55.2h6.9a1.3,1.3,0,0,0,1.5-1.5V46.8A1.3,1.3,0,0,0,20.9,45.3Zm-1.1,6.9c0,.3-.1.4-.4.4H15.5c-.3,0-.4-.1-.4-.4a12.1,12.1,0,0,0,0-1.9,13.3,13.3,0,0,0,0-2c0-.3.1-.4.4-.4h3.9c.3,0,.4.1.4.4Z"/>
    <path d="M20.9,30.8H14c-1,0-1.5.5-1.5,1.4v7A1.3,1.3,0,0,0,14,40.7h6.9a1.3,1.3,0,0,0,1.5-1.5v-7C22.4,31.3,21.9,30.8,20.9,30.8Zm-1.1,6.9c0,.3-.1.4-.4.4a25.4,25.4,0,0,0-3.9,0c-.3,0-.4-.1-.4-.4a25.4,25.4,0,0,0,0-3.9c0-.3.1-.4.4-.4h3.9c.3,0,.4.1.4.4Z"/>
    <path d="M36.9,8.9a1.3,1.3,0,0,1-1.4,1.4h-7a1.3,1.3,0,0,1-1.4-1.4c0-.8.5-1.2,1.4-1.2s2.3,0,3.5,0,2.3-.1,3.5,0S36.9,8.2,36.9,8.9Z"/>
    <path d="M35.5,45.3h-7a1.3,1.3,0,0,0-1.4,1.4c-.1,2.4-.1,4.7,0,7.1s.5,1.4,1.5,1.4h6.9a1.3,1.3,0,0,0,1.4-1.4c.1-2.4.1-4.7,0-7.1A1.3,1.3,0,0,0,35.5,45.3Zm-1.2,5v1.9c0,.3,0,.4-.3.4H30c-.2,0-.3-.1-.3-.4V48.3c0-.3.1-.4.3-.4h4c.3,0,.3.1.3.4Z"/>
    <path d="M35.5,30.8h-7a1.3,1.3,0,0,0-1.4,1.4c-.1,2.4-.1,4.7,0,7s.5,1.5,1.4,1.5h6.9a1.3,1.3,0,0,0,1.5-1.5c.1-2.3.1-4.7,0-7A1.3,1.3,0,0,0,35.5,30.8Zm-1.2,4.9v2c0,.3-.1.4-.3.4a26.7,26.7,0,0,0-4,0c-.3,0-.3-.1-.3-.4V33.8c0-.3.1-.4.3-.4h4c.3,0,.3.1.3.4Z"/>
    <path d="M49.8,13.8H14.2c-1.3,0-1.7.4-1.7,1.7v9c0,1.2.5,1.6,1.7,1.6H49.8c1.2,0,1.7-.4,1.7-1.6v-9C51.5,14.2,51.1,13.8,49.8,13.8ZM48.9,23c0,.4-.2.5-.6.5H15.7c-.4,0-.6-.1-.5-.5,0-2,0-4-.1-6,0-.5.3-.6.7-.6H48.2c.5,0,.7.1.7.7A58.1,58.1,0,0,0,48.9,23Z"/>
    <path d="M49.7,30.8H43.2c-1.1,0-1.6.5-1.6,1.5V53.7c0,1,.5,1.5,1.6,1.5h6.5c1.4,0,1.8-.4,1.8-1.7V32.6C51.5,31.2,51.1,30.8,49.7,30.8ZM48.9,52c0,.5-.1.6-.6.6H44.6c-.3,0-.4-.1-.4-.4V33.8c0-.3.1-.4.4-.4h3.8c.4,0,.5.1.5.5V43C48.9,46,48.8,49,48.9,52Z"/>
    <path d="M58.9,9.8a8.1,8.1,0,0,0-3.4-6.7,7,7,0,0,0-4.2-1.6h-.1a.8.8,0,0,1-.7,0h-37a.8.8,0,0,1-.7,0h-.2l-1.7.3a8.7,8.7,0,0,0-5.8,8c.1,14.7,0,29.4,0,44.2a9.2,9.2,0,0,0,.7,3.6,8.7,8.7,0,0,0,7.4,4.9H52.5a8.8,8.8,0,0,0,6.4-8.2C58.8,39.4,58.9,24.6,58.9,9.8ZM13.8,4.1H50.2a5.8,5.8,0,0,1,5.9,5.6V53.6c0,2.9-1.4,5.1-4,5.9a4.5,4.5,0,0,1-2,.4H13.9a5.8,5.8,0,0,1-6-6V10.2a5.9,5.9,0,0,1,3.9-5.8A6.9,6.9,0,0,1,13.8,4.1Z"/>
    <path d="M58.9,54.2a8.8,8.8,0,0,1-6.4,8.2H13.2a8.7,8.7,0,0,1-7.4-4.9A9.2,9.2,0,0,1,5.1,54c0-14.8.1-29.5,0-44.2a8.7,8.7,0,0,1,5.8-8l1.7-.3L11,1.9A8.5,8.5,0,0,0,5.3,9.3V53.7a8.5,8.5,0,0,0,6.2,8.5,8.3,8.3,0,0,0,2.2.3H50.3a8.4,8.4,0,0,0,8.4-8V10.2a8.3,8.3,0,0,0-6.2-8.4l-1.2-.3a7,7,0,0,1,4.2,1.6,8.1,8.1,0,0,1,3.4,6.7C58.9,24.6,58.8,39.4,58.9,54.2Z"/>
    <path d="M13.5,1.5a.6.6,0,0,1-.7,0Z"/>
    <path d="M51.2,1.5a.6.6,0,0,1-.7,0Z"/>
    <path d="M20.9,45.3H14a1.3,1.3,0,0,0-1.5,1.5v6.9A1.3,1.3,0,0,0,14,55.2h6.9a1.3,1.3,0,0,0,1.5-1.5V46.8A1.3,1.3,0,0,0,20.9,45.3Zm-1.1,6.9c0,.3-.1.4-.4.4H15.5c-.3,0-.4-.1-.4-.4a12.1,12.1,0,0,0,0-1.9,13.3,13.3,0,0,0,0-2c0-.3.1-.4.4-.4h3.9c.3,0,.4.1.4.4Z"/>
    <path d="M20.9,30.8H14c-1,0-1.5.5-1.5,1.4v7A1.3,1.3,0,0,0,14,40.7h6.9a1.3,1.3,0,0,0,1.5-1.5v-7C22.4,31.3,21.9,30.8,20.9,30.8Zm-1.1,6.9c0,.3-.1.4-.4.4a25.4,25.4,0,0,0-3.9,0c-.3,0-.4-.1-.4-.4a25.4,25.4,0,0,0,0-3.9c0-.3.1-.4.4-.4h3.9c.3,0,.4.1.4.4Z"/>
    <path d="M36.9,8.9a1.3,1.3,0,0,1-1.4,1.4h-7a1.3,1.3,0,0,1-1.4-1.4c0-.8.5-1.2,1.4-1.2s2.3,0,3.5,0,2.3-.1,3.5,0S36.9,8.2,36.9,8.9Z"/>
    <path d="M35.5,45.3h-7a1.3,1.3,0,0,0-1.4,1.4c-.1,2.4-.1,4.7,0,7.1s.5,1.4,1.5,1.4h6.9a1.3,1.3,0,0,0,1.4-1.4c.1-2.4.1-4.7,0-7.1A1.3,1.3,0,0,0,35.5,45.3Zm-1.2,5v1.9c0,.3,0,.4-.3.4H30c-.2,0-.3-.1-.3-.4V48.3c0-.3.1-.4.3-.4h4c.3,0,.3.1.3.4Z"/>
    <path d="M35.5,30.8h-7a1.3,1.3,0,0,0-1.4,1.4c-.1,2.4-.1,4.7,0,7s.5,1.5,1.4,1.5h6.9a1.3,1.3,0,0,0,1.5-1.5c.1-2.3.1-4.7,0-7A1.3,1.3,0,0,0,35.5,30.8Zm-1.2,4.9v2c0,.3-.1.4-.3.4a26.7,26.7,0,0,0-4,0c-.3,0-.3-.1-.3-.4V33.8c0-.3.1-.4.3-.4h4c.3,0,.3.1.3.4Z"/>
    <path d="M49.8,13.8H14.2c-1.3,0-1.7.4-1.7,1.7v9c0,1.2.5,1.6,1.7,1.6H49.8c1.2,0,1.7-.4,1.7-1.6v-9C51.5,14.2,51.1,13.8,49.8,13.8ZM48.9,23c0,.4-.2.5-.6.5H15.7c-.4,0-.6-.1-.5-.5,0-2,0-4-.1-6,0-.5.3-.6.7-.6H48.2c.5,0,.7.1.7.7A58.1,58.1,0,0,0,48.9,23Z"/>
    <path d="M49.7,30.8H43.2c-1.1,0-1.6.5-1.6,1.5V53.7c0,1,.5,1.5,1.6,1.5h6.5c1.4,0,1.8-.4,1.8-1.7V32.6C51.5,31.2,51.1,30.8,49.7,30.8ZM48.9,52c0,.5-.1.6-.6.6H44.6c-.3,0-.4-.1-.4-.4V33.8c0-.3.1-.4.4-.4h3.8c.4,0,.5.1.5.5V43C48.9,46,48.8,49,48.9,52Z"/>
    <path d="M49.8,13.8H14.2c-1.3,0-1.7.4-1.7,1.7v9c0,1.2.5,1.6,1.7,1.6H49.8c1.2,0,1.7-.4,1.7-1.6v-9C51.5,14.2,51.1,13.8,49.8,13.8ZM48.9,23c0,.4-.2.5-.6.5H15.7c-.4,0-.6-.1-.5-.5,0-2,0-4-.1-6,0-.5.3-.6.7-.6H48.2c.5,0,.7.1.7.7A58.1,58.1,0,0,0,48.9,23Z"/>
    <path d="M49.7,30.8H43.2c-1.1,0-1.6.5-1.6,1.5V53.7c0,1,.5,1.5,1.6,1.5h6.5c1.4,0,1.8-.4,1.8-1.7V32.6C51.5,31.2,51.1,30.8,49.7,30.8ZM48.9,52c0,.5-.1.6-.6.6H44.6c-.3,0-.4-.1-.4-.4V33.8c0-.3.1-.4.4-.4h3.8c.4,0,.5.1.5.5V43C48.9,46,48.8,49,48.9,52Z"/>
    <path d="M20.9,30.8H14c-1,0-1.5.5-1.5,1.4v7A1.3,1.3,0,0,0,14,40.7h6.9a1.3,1.3,0,0,0,1.5-1.5v-7C22.4,31.3,21.9,30.8,20.9,30.8Zm-1.1,6.9c0,.3-.1.4-.4.4a25.4,25.4,0,0,0-3.9,0c-.3,0-.4-.1-.4-.4a25.4,25.4,0,0,0,0-3.9c0-.3.1-.4.4-.4h3.9c.3,0,.4.1.4.4Z"/>
    <path d="M20.9,45.3H14a1.3,1.3,0,0,0-1.5,1.5v6.9A1.3,1.3,0,0,0,14,55.2h6.9a1.3,1.3,0,0,0,1.5-1.5V46.8A1.3,1.3,0,0,0,20.9,45.3Zm-1.1,6.9c0,.3-.1.4-.4.4H15.5c-.3,0-.4-.1-.4-.4a12.1,12.1,0,0,0,0-1.9,13.3,13.3,0,0,0,0-2c0-.3.1-.4.4-.4h3.9c.3,0,.4.1.4.4Z"/>
    <path d="M35.5,30.8h-7a1.3,1.3,0,0,0-1.4,1.4c-.1,2.4-.1,4.7,0,7s.5,1.5,1.4,1.5h6.9a1.3,1.3,0,0,0,1.5-1.5c.1-2.3.1-4.7,0-7A1.3,1.3,0,0,0,35.5,30.8Zm-1.2,4.9v2c0,.3-.1.4-.3.4a26.7,26.7,0,0,0-4,0c-.3,0-.3-.1-.3-.4V33.8c0-.3.1-.4.3-.4h4c.3,0,.3.1.3.4Z"/>
    <path d="M35.5,45.3h-7a1.3,1.3,0,0,0-1.4,1.4c-.1,2.4-.1,4.7,0,7.1s.5,1.4,1.5,1.4h6.9a1.3,1.3,0,0,0,1.4-1.4c.1-2.4.1-4.7,0-7.1A1.3,1.3,0,0,0,35.5,45.3Zm-1.2,5v1.9c0,.3,0,.4-.3.4H30c-.2,0-.3-.1-.3-.4V48.3c0-.3.1-.4.3-.4h4c.3,0,.3.1.3.4Z"/>
    <path d="M36.9,8.9a1.3,1.3,0,0,1-1.4,1.4h-7a1.3,1.3,0,0,1-1.4-1.4c0-.8.5-1.2,1.4-1.2s2.3,0,3.5,0,2.3-.1,3.5,0S36.9,8.2,36.9,8.9Z"/>
  </g>
</svg>
