<svg id="Layer_1" data-name="Layer 1" xmlns="http://www.w3.org/2000/svg" viewBox="0 0 64 64">
  <g>
    <path d="M60,25.8a1.5,1.5,0,0,0-1.6-.9,4.8,4.8,0,0,1-1.2,0c-1.6,0-1.6,0-1.6-1.5V11.3c0-1.6-.5-2.1-2.1-2.1H46.8c-1.2,0-1.7.5-1.8,1.8v2.6l-3.7-2.4C38.6,9.4,36,7.6,33.3,6V2A1.6,1.6,0,0,0,32.5.5c-1-.5-2,.3-2,1.5a27.1,27.1,0,0,1-.1,4L18.9,12.9v-2c0-1.2-.5-1.7-1.7-1.7H10.4c-1.6,0-2,.4-2,2v13c0,.5-.1.7-.7.7H5.5a1.6,1.6,0,0,0-1.5.8,1.6,1.6,0,0,0,.3,1.7l7.1,9.3a6,6,0,0,1,.9,1.3V59.7a2.8,2.8,0,0,0,.1.9c.4,1.9,2,3,4.2,3H47.9a3.8,3.8,0,0,0,3.7-3.9V38.1a2.1,2.1,0,0,1,.4-.6c.9-1.2,1.8-2.5,2.8-3.7l4.9-6.4A1.5,1.5,0,0,0,60,25.8Zm-11.5,34a.9.9,0,0,1-1,.7H16.3a.9.9,0,0,1-.9-.6v-.2a3.1,3.1,0,0,0,.1-1V38.8a2.5,2.5,0,0,1,.5-1.7l7.2-9.5a1.9,1.9,0,0,0,.4-2,1.9,1.9,0,0,0-1.8-.9H20.1c-1-.1-1-.1-1-1V16.2a1.5,1.5,0,0,0,.7-.3c3.4-2.1,6.8-4.2,10.3-6.2l.3-.3c-.1,1.4,0,2.9,0,4.3h.1a5.1,5.1,0,0,0-3.7,5.6,5.2,5.2,0,0,0,4.1,4.4,5.3,5.3,0,0,0,5.5-2.4c1.7-3,.3-6.4-3.1-7.6h.1a13.4,13.4,0,0,0,0-4l.5.3,3.1,2,6.8,4.5a1.9,1.9,0,0,0,1,.5c.1,2.4,0,4.7,0,7.1,0,.7-.1.8-.8.8H42.1a1.6,1.6,0,0,0-1.6.9,1.7,1.7,0,0,0,.2,1.8l.3.3,6.8,8.8a3.7,3.7,0,0,1,.7,2.3V58.6a2.5,2.5,0,0,0,.1.9A.4.4,0,0,1,48.5,59.8ZM34.3,18.7A2.4,2.4,0,0,1,32,21a2.4,2.4,0,0,1-.1-4.7A2.4,2.4,0,0,1,34.3,18.7Zm-26.2,9H9.5c1.2,0,1.7-.5,1.7-1.7V12.8c0-.7.2-.8.9-.8h3.3c.6,0,.7.1.7.7V25.6c0,1.7.4,2.1,2.1,2.1h.9a2,2,0,0,1-.6.9l-4.3,5.8c-.4.6-.6.5-1,0Zm47.2.9-4.6,6c-.2.2-.4.5-.7,0l-5-6.5c0-.1-.1-.2-.1-.3h1.2c1.2-.1,1.8-.6,1.8-1.8V12.7c0-.5.1-.7.6-.7h3.6c.5,0,.7.2.7.7-.1,4.3-.1,8.6-.1,12.9,0,1.7.4,2.2,2.2,2.2.2,0,.6-.2.8,0S55.4,28.3,55.3,28.6Z"/>
    <path d="M34.2,40.6c-1.3-.6-2.8-1.1-4.1-1.8a2.2,2.2,0,0,1-1.3-2.3,2.8,2.8,0,0,1,1.5-2.4,4.5,4.5,0,0,1,4.6.5,1.3,1.3,0,0,0,2-.1,1.5,1.5,0,0,0-.3-2.1,4.6,4.6,0,0,0-2.2-1.1,1.3,1.3,0,0,1-1.2-1.5,1.3,1.3,0,0,0-1.4-1.5,1.3,1.3,0,0,0-1.3,1.6,1.4,1.4,0,0,1-1.2,1.6A5.1,5.1,0,0,0,26,36.2,4.7,4.7,0,0,0,28.4,41l2,1.1,3.1,1.3a3.2,3.2,0,0,1,2.2,3.1,3.7,3.7,0,0,1-3.1,3.7,6.9,6.9,0,0,1-4.9-.9,1.5,1.5,0,0,0-1.8-.1c-.8.6-.7,1.7.3,2.4a7.5,7.5,0,0,0,3.5,1.3c.6.1.9.4.8,1a1.4,1.4,0,0,0,.1,1.1,1.3,1.3,0,0,0,1.4.9,1.3,1.3,0,0,0,1.2-1.1,4.9,4.9,0,0,0,.1-1.2c-.1-.5.1-.7.7-.9a6.6,6.6,0,0,0,4.5-7A6.3,6.3,0,0,0,34.2,40.6Z"/>
  </g>
</svg>
