<svg id="Layer_1" data-name="Layer 1" xmlns="http://www.w3.org/2000/svg" viewBox="0 0 64 64">
  <g>
    <path d="M63.2,61.4V8.6A1.4,1.4,0,0,0,62,7.1H56.7c-.6,0-.7,0-.7-.7V2.8a4.5,4.5,0,0,0-.1-1.1c-.2-.5-.5-.9-1.1-.8H9.1a1.2,1.2,0,0,0-.7.7H8.3c0,.2-.1.4-.1.7V6.7c0,.4,0,.6-.5.6h-6a1.4,1.4,0,0,0-.9.8v54c.3.8.5,1,1.4,1h60a1.1,1.1,0,0,0,1-1ZM19.7,39.1H3.5V34H19.7Zm0-7.8H3.5V26.2H19.7Zm0-7.8H3.5V18.4H19.7ZM10.9,4c0-.4.1-.6.4-.5H52.4c.6,0,.8.1.7.7V6.7q.1.6-.6.6H43.2c-1,0-1.5.3-1.7,1.3s0,.4,0,.6V51.8c0,.7-.2.8-.8.8H23.3c-1,0-.8.1-.8-.8-.1-14.2,0-28.4-.1-42.6,0-.2.1-.4,0-.6a1.4,1.4,0,0,0-1.6-1.3H11.5c-.5,0-.6-.1-.6-.6ZM60.4,18.4v5.1H44.3a43.4,43.4,0,0,1,0-5.1Zm.1,41.5c0,.4-.1.5-.5.5H54.2c-.4,0-.5-.1-.5-.5V50.6a1.4,1.4,0,0,0-2-1.3,1.5,1.5,0,0,0-.7,1.5v8.9c0,.6-.1.7-.7.7H44.7c-.3,0-.5,0-.5-.4V42c0-.1,0-.2.1-.2H60.4c.1,4.8.1,9.6.1,14.4C60.5,57.5,60.4,58.7,60.5,59.9ZM44.3,26.2H60.4v5.1H44.3A43.4,43.4,0,0,1,44.3,26.2Zm0,12.9a43.4,43.4,0,0,1,0-5.1H60.4v5.1ZM41.5,59.8c0,.5-.2.6-.6.6H23c-.4,0-.6-.1-.6-.6a26.7,26.7,0,0,0,0-4c0-.4.1-.6.6-.6H41c.4,0,.5.2.5.6ZM60.4,15.7H44.3c-.1-1.8-.1-3.6-.1-5.4s.3-.3.5-.3H59.9c.5,0,.6.2.6.6S60.5,14,60.4,15.7ZM4,10H19.2c.2,0,.5-.1.5.3v5.4H3.5V10.3C3.4,9.8,3.8,10,4,10ZM3.5,41.8H19.7v18c0,.5-.1.6-.6.6H13.5c-.5,0-.6-.1-.6-.5.1-3,0-6,0-8.9v-.7a1.4,1.4,0,0,0-1.4-1.1,1.2,1.2,0,0,0-1.2,1.3v9.4c0,.4-.1.5-.6.5H4c-.3,0-.5.1-.5-.4Z"/>
    <path d="M28,47.6a1.3,1.3,0,0,0,1.4-.9,1.9,1.9,0,0,0,.1-.8V9.8a1.5,1.5,0,0,0-1.2-1.3c-.9-.1-1.4.6-1.5,1.6V45.8a1.3,1.3,0,0,0,.1.6A1.1,1.1,0,0,0,28,47.6Z"/>
    <path d="M35.4,47.8a1.2,1.2,0,0,0,1.4-.9c.2-.3.1-.6.1-.9V10.6c0-.3.1-.5,0-.7a1.3,1.3,0,0,0-1.5-1.2c-.7.1-1.1.7-1.1,1.6V46.6A1.2,1.2,0,0,0,35.4,47.8Z"/>
  </g>
</svg>
