<svg id="Layer_1" data-name="Layer 1" xmlns="http://www.w3.org/2000/svg" viewBox="0 0 64 64">
  <defs>
    <style>
      .cls-1 {
        fill: #010101;
      }
    </style>
  </defs>
  <g>
    <path class="cls-1" d="M59.9,2.7H10.5c-1,0-1.5.4-1.5,1.4V38.8l-.4.2A11.9,11.9,0,0,0,5.1,56.6a12,12,0,0,0,19.8-1,15.1,15.1,0,0,0,1.7-4.9h33c1.4,0,1.8-.4,1.8-1.8V4.4C61.4,3.1,60.9,2.7,59.9,2.7ZM19,36.7c-.6.5-.6.5-1.1-.1L12.5,30a2.8,2.8,0,0,1-.9-1.3h0c-.1-1.6,0-3.2,0-4.8h.1l1.8,1.9,2.8,2.8a1.3,1.3,0,0,0,1.9.1,1.3,1.3,0,0,0,.7-.6c1.8-1.7,3.6-3.5,5.3-5.3s.6-.6,1.2.1l1.3,1.6,2,2.5-.6.5Zm-7.5.9h0V37c.1-1.2,0-2.4.1-3.5h.1c.4.2.6.7.9,1A32.2,32.2,0,0,0,15,37.3a10.5,10.5,0,0,0-2.5.1,3.2,3.2,0,0,0-1.1.4C11.4,37.7,11.5,37.7,11.5,37.6Zm5.4,21a9.5,9.5,0,0,1-9-16,9.2,9.2,0,0,1,5-2.5c.4-.1.5,0,.5.4s0,2.9,0,4.4h-.1c0,1.4.1,2.7,0,4.1a5.3,5.3,0,0,0,.3,1.2c1.3,2.6,2.4,5.1,3.7,7.7C17.5,58.4,17.3,58.5,16.9,58.6Zm3.2-1.4c-.3.2-.4.1-.5-.2l-.8-1.7c-.6-1.4-1.3-2.8-2-4.2s-.2-.2-.1-.5h6.8c.4,0,.5.1.5.5A10,10,0,0,1,20.1,57.2Zm3.4-9.1h-7c-.5.1-.6,0-.6-.5V40.5c0-.5.1-.5.5-.4A9.5,9.5,0,0,1,24,47.5C24,48,24,48.2,23.5,48.1Zm35.2-1a1.9,1.9,0,0,1-.1.8h-32v-.9a11.9,11.9,0,0,0-4-7.1,5,5,0,0,0-2.1-1.3c.3-.1.4-.3.6-.5l8.8-8.8a1.8,1.8,0,0,0,.5-.7l.3.3,2.6,3.3c.8.9,1.5,1,2.4.1L39.4,29h0l3.7,3.7c.9.9,1.5.9,2.4,0l7.7-7.6a.8.8,0,0,1,.5-.5v.3c.2.8.7,1.3,1.4,1.2s1.1-.6,1.1-1.5V21.7c0-.8-.3-1.3-1-1.4a24.1,24.1,0,0,0-3.8,0,1.2,1.2,0,0,0-.1,2.4h.6c-2.5,2.5-4.9,5-7.4,7.4-.2.2-.3.1-.4,0l-2.9-3h0A37,37,0,0,1,44,24.4v.3c.2.8.6,1.2,1.3,1.1s1.1-.4,1.2-1.2a20.8,20.8,0,0,0-.1-3.5,1.1,1.1,0,0,0-1-1.1H41.7a1.4,1.4,0,0,0-1.1,1.2,1.2,1.2,0,0,0,1.1,1.2l.4.2-2.8,2.8h0L35.9,22a1.3,1.3,0,0,0-2.2,0l-3,3.1h0a.8.8,0,0,1-.4-.4l-4.2-5.1c-.7-.9-1.4-1-2.3-.1l-5.9,5.9c-.5.5-.7.5-1.1,0l-5.1-5.1v-4c0-.8.1-.8.8-.8H57.8c.9,0,.9,0,.9.8Zm-28-22h0ZM32.4,27c.1,0,.2,0,.2-.1l2.2-2.2A25,25,0,0,1,37.1,27h.3L35,29.6c-.2.2-.4.2-.6-.1A24.3,24.3,0,0,1,32.4,27ZM58.9,12.1c0,.5-.1.6-.6.6H12.1c-.6,0-.7-.2-.6-.7V5.7c0-.5.1-.6.5-.6H58.3c.5,0,.6.2.6.6Z"/>
    <path class="cls-1" d="M54.8,42.2H42.1a1.3,1.3,0,1,0-.1,2.5H54.8a1.3,1.3,0,0,0,1.1-.5,1.2,1.2,0,0,0,.2-1.3A1.5,1.5,0,0,0,54.8,42.2Z"/>
    <path class="cls-1" d="M42.1,39.2c2.1-.1,4.2,0,6.3,0h6.3a1.1,1.1,0,0,0,.8-.2,1.2,1.2,0,0,0,.6-1.4c-.1-.6-.5-.9-1.3-.9H42.1c-.9,0-1.5.5-1.5,1.2A1.4,1.4,0,0,0,42.1,39.2Z"/>
    <path class="cls-1" d="M55.1,7.9A2,2,0,0,0,54,7.7H33.3a1.1,1.1,0,0,0-1,1.1c0,.8.6,1.3,1.6,1.3h21A1.2,1.2,0,0,0,55.7,9,1,1,0,0,0,55.1,7.9Z"/>
    <path class="cls-1" d="M15.9,7.7a1.2,1.2,0,0,0-1.2,1.2,1.2,1.2,0,0,0,1.2,1.3A1.3,1.3,0,0,0,17.1,9,1.3,1.3,0,0,0,15.9,7.7Z"/>
    <path class="cls-1" d="M20.9,7.7a1.2,1.2,0,0,0-1.2,1.2,1.2,1.2,0,0,0,1.2,1.3A1.3,1.3,0,0,0,22.1,9,1.2,1.2,0,0,0,20.9,7.7Z"/>
    <path class="cls-1" d="M26,7.7a1.3,1.3,0,0,0-1.3,1.2,1.3,1.3,0,0,0,1.2,1.3A1.3,1.3,0,0,0,26,7.7Z"/>
  </g>
</svg>
