<svg id="Layer_1" data-name="Layer 1" xmlns="http://www.w3.org/2000/svg" viewBox="0 0 64 64">
  <defs>
    <style>
      .cls-1 {
        fill: #010101;
      }
    </style>
  </defs>
  <g>
    <path class="cls-1" d="M58.1,38a29.4,29.4,0,0,0-10-15c-.2-.1-.7-.2-.3-.7a4.6,4.6,0,0,0-1-7c-.4-.3-.5-.4-.2-.8A10.4,10.4,0,0,0,48.4,10c.3-3.2-1.8-6.2-5.3-5.9a19,19,0,0,0-2.5.3,2.6,2.6,0,0,1-2.9-.9l-.9-.9A6.6,6.6,0,0,0,30.4.8a6.4,6.4,0,0,0-4,2.6,2.8,2.8,0,0,1-3.2,1,9.3,9.3,0,0,0-3.7-.3,5.1,5.1,0,0,0-3.9,5.6,9.5,9.5,0,0,0,2,5.2h0a4.6,4.6,0,0,0-1.4,7.3c.3.4,0,.5-.2.6a29,29,0,0,0-6.3,6.8C6.4,34.7,4.5,40.1,5,46.2a15.6,15.6,0,0,0,5.9,11.3,24.5,24.5,0,0,0,10.9,4.9,52.9,52.9,0,0,0,17.3.5,31,31,0,0,0,10-2.8c4.1-2.1,7.3-5,8.9-9.4A19.7,19.7,0,0,0,58.1,38ZM18.5,8.3a2.1,2.1,0,0,1,2.3-1.4c1.2.1,2.3.4,3.5.4A4.2,4.2,0,0,0,27.7,6c.6-.5,1.1-1.1,1.6-1.6a4.1,4.1,0,0,1,5.3-.1l1.2,1.3a5.1,5.1,0,0,0,4.8,1.7l2.5-.4a2.1,2.1,0,0,1,2.5,1.9,6.5,6.5,0,0,1-1.1,3.8A4.1,4.1,0,0,1,40.7,15l-2.8.3c-.3-.1-.1-.4,0-.5l1-2.4a1.3,1.3,0,0,0-.6-1.5,1.2,1.2,0,0,0-1.5.1,2.2,2.2,0,0,0-.7.9c-.5,1.2-1.1,2.4-1.6,3.7a29,29,0,0,1-5.1-.1c-.5-1.3-1.1-2.6-1.7-3.9a1.5,1.5,0,0,0-1.9-.8,1.4,1.4,0,0,0-.6,2l.9,2.1c.1.2.2.4-.1.4h0l-4.5-.6-.6-.3A8.5,8.5,0,0,1,18.4,10,3.3,3.3,0,0,1,18.5,8.3Zm1.8,9a58.5,58.5,0,0,0,17.7.8l5.9-.8A2,2,0,0,1,46.2,19a2.1,2.1,0,0,1-1.8,2.2,73.7,73.7,0,0,1-12.6,1.2,74.2,74.2,0,0,1-12.3-1.2,2,2,0,0,1-1.7-2.4A2,2,0,0,1,20.3,17.3ZM54,52.3a15.4,15.4,0,0,1-6.6,5.5,34,34,0,0,1-13,2.7H32a41.2,41.2,0,0,1-13.5-1.9c-3.7-1.4-6.9-3.4-8.9-6.9a13.5,13.5,0,0,1-1.8-9c.7-6.9,4-12.4,9.1-16.9,2.2-1.9,2.2-1.8,5.4-1.3a70.1,70.1,0,0,0,18.3.1l3.6-.5a.8.8,0,0,1,.8.2,23.2,23.2,0,0,1,7.1,7.2A25.3,25.3,0,0,1,56,41.1C56.6,45,56.3,48.8,54,52.3Z"/>
    <path class="cls-1" d="M32.2,28.7A13.6,13.6,0,1,0,45.6,42.3,13.5,13.5,0,0,0,32.2,28.7ZM32,53.1A10.9,10.9,0,1,1,42.8,42.3,10.8,10.8,0,0,1,32,53.1Z"/>
    <path class="cls-1" d="M35.4,35.4a1.4,1.4,0,0,0-1.6.8c-2.1,3.6-4,7.2-6,10.7a1.5,1.5,0,0,0-.2,1.3,1.3,1.3,0,0,0,1.2.9c.7.1,1.1-.3,1.5-.9l5.8-10.5a1.6,1.6,0,0,0,.3-.9A1.4,1.4,0,0,0,35.4,35.4Z"/>
    <path class="cls-1" d="M35,46.4a1.3,1.3,0,0,0-1.3,1.4A1.3,1.3,0,0,0,35,49.1a1.3,1.3,0,0,0,1.4-1.3A1.4,1.4,0,0,0,35,46.4Z"/>
    <path class="cls-1" d="M28.9,38.1a1.3,1.3,0,0,0,1.4-1.3,1.4,1.4,0,0,0-1.4-1.4,1.4,1.4,0,0,0-1.4,1.3A1.4,1.4,0,0,0,28.9,38.1Z"/>
  </g>
</svg>
