<svg id="Layer_1" data-name="Layer 1" xmlns="http://www.w3.org/2000/svg" viewBox="0 0 64 64">
  <g>
    <path d="M61.2,16.3H50.6V11.6a1.9,1.9,0,0,0-2.2-2.2H41.6c-.4.1-.6,0-.6-.5V5c0-1.8-.6-2.4-2.4-2.4H24.8a1.8,1.8,0,0,0-1.8,2V8.8c0,.6-.2.7-.6.6H15.6a1.9,1.9,0,0,0-2.2,2.2v4.7H2.6A1.8,1.8,0,0,0,.8,17.4a4.9,4.9,0,0,0-.1,1.2V59.9a1.7,1.7,0,0,0,1.4,1.5H61.4c1.3,0,1.9-.7,1.9-2v-41C63.3,17,62.7,16.3,61.2,16.3ZM17,13.6c0-.5.1-.6.5-.6h6.7a3.2,3.2,0,0,0,1.4-.2,1.8,1.8,0,0,0,.9-1.6V6.7c0-.4.1-.6.6-.6,3.3.1,6.6.1,9.8,0,.5,0,.6.2.6.6v4.1c0,1.5.6,2.2,2.1,2.2h6.8c.5,0,.7.1.7.6-.1,2.4-.1,4.8,0,7.1,0,.6-.2.7-.7.6H17.6c-.5,0-.7-.2-.6-.7Zm42.5,7.8v35c0,1.2,0,1.2-1.2,1.2H5.3c-.8,0-.8,0-.8-.8V20.9c0-.8,0-.8.8-.8h7.1c.3,0,.7.1.9-.1v.2a19.3,19.3,0,0,0,0,3.4A1.9,1.9,0,0,0,15,25H48.7A2.2,2.2,0,0,0,50.8,23V20.5a.7.7,0,0,0-.2-.6c.3.2.6.1.9.1h6.7C59.6,20.1,59.5,19.9,59.5,21.4Z"/>
    <path d="M23.9,44.2l-.6-.2c4-2.5,4.5-6.2,3.7-8.9A7.7,7.7,0,0,0,19.9,30,7.3,7.3,0,0,0,13,35.1c-.9,2.7-.5,6.3,3.6,8.8l-1.2.4a11.8,11.8,0,0,0-7.2,7.3A2,2,0,0,0,9.3,54a1.9,1.9,0,0,0,2.3-1.2,6.8,6.8,0,0,1,1.2-2.4,8.9,8.9,0,0,1,8.8-3.1,7.8,7.8,0,0,1,6.8,5.5A1.8,1.8,0,0,0,30.7,54a1.9,1.9,0,0,0,1-2.3C30.5,47.8,27.7,45.5,23.9,44.2Zm-4-3a3.9,3.9,0,0,1,.1-7.7,3.9,3.9,0,0,1-.1,7.7Z"/>
    <path d="M53.9,39.6c-2.7-.1-5.4,0-8.1,0H42.9c-1.8,0-3.6-.1-5.5,0a1.8,1.8,0,0,0-1.8,1.6,1.8,1.8,0,0,0,1.7,1.9H54.4A1.8,1.8,0,0,0,55.7,42,1.7,1.7,0,0,0,53.9,39.6Z"/>
    <path d="M54.1,46.9H37.5a1.7,1.7,0,0,0-1.9,1.7,1.7,1.7,0,0,0,1.9,1.8H54a1.9,1.9,0,0,0,1.4-.5,1.8,1.8,0,0,0,.3-1.9A1.6,1.6,0,0,0,54.1,46.9Z"/>
    <path d="M37.6,35.8H53.8c1.3,0,2.1-.7,2-1.8s-.7-1.7-2-1.7H37.5a1.7,1.7,0,0,0-1.5.6,1.9,1.9,0,0,0-.2,1.9A1.8,1.8,0,0,0,37.6,35.8Z"/>
  </g>
</svg>
