<svg id="Layer_1" data-name="Layer 1" xmlns="http://www.w3.org/2000/svg" viewBox="0 0 64 64">
  <defs>
    <style>
      .cls-1 {
        fill: #212121;
      }

      .cls-2 {
        fill: #2d2d2d;
      }
    </style>
  </defs>
  <g>
    <path d="M23.4,33.9a1.2,1.2,0,0,1-1.2,1.2H12.7a1.5,1.5,0,0,1-1.1-.3,1.1,1.1,0,0,1-.3-1.1,1,1,0,0,1,.8-.9H22.2A1.3,1.3,0,0,1,23.4,33.9Z"/>
    <path d="M23.4,26.1c0,.7-.5,1.2-1.4,1.2H12.6a1.3,1.3,0,0,1-1.4-1.2,1.3,1.3,0,0,1,1.4-1.2H22C22.9,24.9,23.4,25.4,23.4,26.1Z"/>
    <path d="M23.4,41.7q0,1.2-1.5,1.2H12.7c-.9,0-1.4-.4-1.5-1.1a1.3,1.3,0,0,1,1.5-1.3H22A1.3,1.3,0,0,1,23.4,41.7Z"/>
    <path d="M23.4,49.5a1.1,1.1,0,0,1-1.1,1.2h-10a1.2,1.2,0,1,1,.1-2.3c1.7-.1,3.3,0,4.9,0h4.4c.2,0,.4-.1.5,0A1.1,1.1,0,0,1,23.4,49.5Z"/>
    <path d="M62.5,33.6V26.9c0-1.8,0-1.9-1.7-2.5L48,19.6c-.9-.4-.9-.4-.9-1.3V6.7a5.3,5.3,0,0,0-2.5-4.6,4,4,0,0,0-2.2-.6H14a2.1,2.1,0,0,0-1,.6L2.1,12.9A2.4,2.4,0,0,0,1.5,14V58.2a4.2,4.2,0,0,0,.6,2.1,5,5,0,0,0,4.2,2.2H45.5a2.5,2.5,0,0,0,1.6-.5l3.7-2.8A29,29,0,0,0,58,51.6a25.9,25.9,0,0,0,4.5-15.3ZM4.1,14.6,14.6,4.1c.1-.1.2-.3.5-.2s0,.3,0,.5,0,2.7,0,4,.1,2.6,0,3.8a2.8,2.8,0,0,1-2.8,3h-8c-.1,0-.3.1-.4-.2S4,14.7,4.1,14.6ZM34.3,60.1H7.1c-2.2,0-3.2-1-3.2-3.2V18.2c0-.5,0-.7.6-.7,2.5.1,5.1,0,7.6,0a5,5,0,0,0,5.4-5.4V4.4c0-.4.1-.6.6-.6H41.6a2.6,2.6,0,0,1,2.8,2.2,1.9,1.9,0,0,1,.1.8v12a.7.7,0,0,1-.6.7L30,24.8c-1,.4-1.2.6-1.2,1.7v9.7A28.6,28.6,0,0,0,40.3,58.8L42,60.1Z"/>
    <path d="M23.4,33.9a1.2,1.2,0,0,1-1.2,1.2H12.7a1.5,1.5,0,0,1-1.1-.3,1.1,1.1,0,0,1-.3-1.1,1,1,0,0,1,.8-.9H22.2A1.3,1.3,0,0,1,23.4,33.9Z"/>
    <path d="M23.4,26.1c0,.7-.5,1.2-1.4,1.2H12.6a1.3,1.3,0,0,1-1.4-1.2,1.3,1.3,0,0,1,1.4-1.2H22C22.9,24.9,23.4,25.4,23.4,26.1Z"/>
    <path d="M23.4,41.7q0,1.2-1.5,1.2H12.7c-.9,0-1.4-.4-1.5-1.1a1.3,1.3,0,0,1,1.5-1.3H22A1.3,1.3,0,0,1,23.4,41.7Z"/>
    <path d="M23.4,49.5a1.1,1.1,0,0,1-1.1,1.2h-10a1.2,1.2,0,1,1,.1-2.3c1.7-.1,3.3,0,4.9,0h4.4c.2,0,.4-.1.5,0A1.1,1.1,0,0,1,23.4,49.5Z"/>
    <path class="cls-1" d="M31.2,32.6V27.5a.7.7,0,0,1,.5-.8l13.5-5h.9l13.5,5c.3.2.5.3.5.8,0,3,.1,6-.1,9.1A26,26,0,0,1,49.4,57L46,59.5a.5.5,0,0,1-.7.1c-2-1.7-4.2-3.1-6.1-4.9a26.4,26.4,0,0,1-7.4-13.2A37.7,37.7,0,0,1,31.2,32.6Z"/>
    <path d="M23.4,41.7q0,1.2-1.5,1.2H12.7c-.9,0-1.4-.4-1.5-1.1a1.3,1.3,0,0,1,1.5-1.3H22A1.3,1.3,0,0,1,23.4,41.7Z"/>
    <path d="M23.4,33.9a1.2,1.2,0,0,1-1.2,1.2H12.7a1.5,1.5,0,0,1-1.1-.3,1.1,1.1,0,0,1-.3-1.1,1,1,0,0,1,.8-.9H22.2A1.3,1.3,0,0,1,23.4,33.9Z"/>
    <path d="M23.4,26.1c0,.7-.5,1.2-1.4,1.2H12.6a1.3,1.3,0,0,1-1.4-1.2,1.3,1.3,0,0,1,1.4-1.2H22C22.9,24.9,23.4,25.4,23.4,26.1Z"/>
    <path d="M23.4,49.5a1.1,1.1,0,0,1-1.1,1.2h-10a1.2,1.2,0,1,1,.1-2.3c1.7-.1,3.3,0,4.9,0h4.4c.2,0,.4-.1.5,0A1.1,1.1,0,0,1,23.4,49.5Z"/>
    <path class="cls-2" d="M53.4,35.5a27,27,0,0,1-.3,5.6,15.8,15.8,0,0,1-5.9,9.2l-1.2.9a.6.6,0,0,1-.7.1,16.7,16.7,0,0,1-7.2-10.4,23,23,0,0,1-.3-2.6V31.5c0-.4.1-.6.5-.7l7-2.6H46l7,2.6a.5.5,0,0,1,.4.6Z"/>
  </g>
</svg>
