<svg id="Layer_1" data-name="Layer 1" xmlns="http://www.w3.org/2000/svg" viewBox="0 0 64 64">
  <g>
    <path d="M62.3,29.9l-13-9.1a1.6,1.6,0,0,0-1.6-.2,1.4,1.4,0,0,0-.8,1.4v2.3c0,1.2,0,1.2-1.2,1.2s-.8-.1-.8-.8c.1-4.7,0-9.4,0-14.1,0-.3.1-.5,0-.7a5.9,5.9,0,0,0-.4-2.3,7.6,7.6,0,0,0-7.4-5.1H8.8A7.6,7.6,0,0,0,.9,10.2V49a7.5,7.5,0,0,0,5.6,7.5l15.4,4.7a7.5,7.5,0,0,0,9.4-4.8c.1-.5.4-.6.8-.6h7a7.6,7.6,0,0,0,5.8-7.2c.1-.2,0-.5,0-.7V38.2c0-1.4,0-1.4,1.5-1.4s.5.1.5.5v3a1.4,1.4,0,0,0,.8,1.4,1.4,1.4,0,0,0,1.6-.2l13-9C63.4,31.7,63.4,30.6,62.3,29.9ZM28.9,53.8a4.7,4.7,0,0,1-6.4,4.7l-15-4.6a4.8,4.8,0,0,1-3.8-5.1V10A4.7,4.7,0,0,1,7.4,5.4a5.3,5.3,0,0,1,2.5.1l15.5,4.8A4.6,4.6,0,0,1,28.9,15Zm13-15.9v9.8a9.7,9.7,0,0,1-.1,1.7,4.4,4.4,0,0,1-4,3.4H32.6a.6.6,0,0,1-.7-.7V15.8a9.7,9.7,0,0,0-1-4.7,7.9,7.9,0,0,0-5.3-3.9c-2-.6-3.9-1.3-5.9-1.8H37.3a4.3,4.3,0,0,1,2.7.8,4.9,4.9,0,0,1,1.9,4.1v14a3.1,3.1,0,0,0,.1,1h-.4c-1.5,0-3-.1-4.5,0s-1.9.7-1.9,2.1-.1,5,0,7.5.7,2.1,2.2,2.1,2.6,0,3.9,0,.5.1.8-.1A1.6,1.6,0,0,0,41.9,37.9Zm7.8-.1V35.9c0-1.3-.5-1.9-1.9-1.9H38.9c-.6,0-.7-.1-.7-.6V29c0-.5.1-.7.7-.7h8.9c1.4,0,1.9-.4,1.9-1.9V24.5l9.6,6.7Z"/>
    <path d="M24.8,27.9a1.5,1.5,0,0,0-1.4,1.5V33h0a1.4,1.4,0,0,0,1.4,1.3,1.3,1.3,0,0,0,1.4-1.3V29.4A1.4,1.4,0,0,0,24.8,27.9Z"/>
  </g>
</svg>
