<svg id="Layer_1" data-name="Layer 1" xmlns="http://www.w3.org/2000/svg" viewBox="0 0 64 64">
  <g>
    <path d="M63,36.8h0v-.9a1.5,1.5,0,0,0-1.5-1A4.1,4.1,0,0,1,57.6,31a1.9,1.9,0,0,0-.7-1.4V13c.1-3.3-2-5.3-5.3-5.3H6a4.8,4.8,0,0,0-5,4.8V39.4a4.8,4.8,0,0,0,4,4.7H39.4c0,.2.1.4.1.7,1.4,5.8,4.9,9.7,10.7,11.3a1.4,1.4,0,0,0,.9.1,14.7,14.7,0,0,0,8.1-5,17.1,17.1,0,0,0,3.4-9c.2-.9.4-4.1.4-4.1h0ZM3.7,12.8a2.3,2.3,0,0,1,2.4-2.5H51.6c1.8,0,2.7.9,2.7,2.8v1.8c0,.4-.1.5-.5.5H4.3c-.5,0-.7-.1-.6-.6Zm0,8.1V18.5c-.1-.3.1-.4.4-.4H53.7c.5,0,.6.1.6.6a20.9,20.9,0,0,0,0,2.5c0,.3-.1.4-.4.4H4.3C3.8,21.6,3.6,21.5,3.7,20.9ZM38.5,36.6a39.1,39.1,0,0,0,.3,4.9,2.1,2.1,0,0,0-1.1-.1H5.9a2.3,2.3,0,0,1-2-2.1V25.6c0-1.2,0-1.2,1.2-1.2H53.4c.6.1.7.1.7.8v3.4a1.7,1.7,0,0,0,.1.7H45.8A1.6,1.6,0,0,0,43.9,31a3.8,3.8,0,0,1-3.7,3.7A1.8,1.8,0,0,0,38.5,36.6ZM58.8,46.8a11.2,11.2,0,0,1-7.7,6.7.8.8,0,0,1-.7,0c-4.6-1.5-7.3-4.7-8.4-9.4a61.8,61.8,0,0,1-.7-6.2c0-.4.2-.5.5-.6a6.7,6.7,0,0,0,4.7-4.7c.1-.4.3-.5.6-.5h7.4c.4,0,.5.1.7.5a6.6,6.6,0,0,0,4.7,4.7c.3.1.4.1.4.5A25,25,0,0,1,58.8,46.8Z"/>
    <path d="M20,28.9H11.5c-1,0-1.6.5-1.6,1.3s.6,1.3,1.6,1.3H20a1.3,1.3,0,1,0,0-2.6Z"/>
    <path d="M15.6,34.3H11.3a1.3,1.3,0,0,0-1.4,1.3A1.4,1.4,0,0,0,11.3,37h4.3a1.4,1.4,0,0,0,1.5-1.4A1.4,1.4,0,0,0,15.6,34.3Z"/>
    <path d="M52.4,39.5h-3A1.3,1.3,0,0,0,48,40.6a1.4,1.4,0,0,0,1.1,1.5c.4,0,.4.2.4.5v2.5A1.3,1.3,0,0,0,51,46.3c.7,0,1.1-.6,1.2-1.4V42.7c0-.4,0-.6.4-.7a1.3,1.3,0,0,0,1.1-1.4A1.3,1.3,0,0,0,52.4,39.5Z"/>
  </g>
</svg>
