<svg id="Layer_1" data-name="Layer 1" xmlns="http://www.w3.org/2000/svg" viewBox="0 0 64 64">
  <defs>
    <style>
      .cls-1 {
        fill: #020202;
      }
    </style>
  </defs>
  <g>
    <path class="cls-1" d="M63,12.6c0-3.6-2.6-6-5.5-5.9l-7.2-.2H13.6l-7.2.2A5.5,5.5,0,0,0,1,12.5c.1,13.1,0,26.1,0,39.2,0,3.7,2.1,5.8,5.9,5.8H57.1c3.7,0,5.8-2.1,5.8-5.8C62.9,38.6,62.9,25.6,63,12.6Zm-9.2-2c.1-.3.4-.3.6-.3h3a1.7,1.7,0,0,1,1.9,1.8v3.1c0,.2.1.6-.4.6H50.8Zm-12.3,0c.1-.3.4-.3.7-.3H49c.7,0,.7.2.4.7s-1.7,2.9-2.5,4.3a.7.7,0,0,1-.7.6H38.5C39.5,14,40.5,12.3,41.5,10.6Zm-12.4.1a.8.8,0,0,1,.7-.4h7c.6,0,.6.2.3.6s-1.7,3-2.5,4.5-.4.5-.7.5H26.3ZM14.2,15.3l2.5-4.5a.9.9,0,0,1,.8-.5h7c.5,0,.6.1.3.6l-2.6,4.6a.9.9,0,0,1-.8.4H14.5C14,15.9,13.9,15.8,14.2,15.3ZM4.7,12.2c0-1.3.6-1.8,1.9-1.8h5.6q.8,0,.3.6L9.9,15.5a.8.8,0,0,1-.7.4H5.3c-.5,0-.6-.2-.6-.7ZM59.3,51.6c0,1.9-.4,2.3-2.3,2.3H7c-1.9,0-2.3-.4-2.3-2.4v-31c0-.8.2-1,.9-1H58.3c.7,0,1,.2,1,1Z"/>
    <path class="cls-1" d="M42.8,32.8c-4.7-2.7-9.4-5.5-14.2-8.1-3.2-1.8-6.6.3-6.6,4s0,5.4,0,8.1V41c0,1.4-.1,2.8,0,4.2a4.3,4.3,0,0,0,5.5,4.1,8.8,8.8,0,0,0,2.2-1l12.9-7.5C46,38.9,46.1,34.8,42.8,32.8Zm-2.3,5L27.2,45.5c-1.1.6-1.6.3-1.6-.9V29c0-1.3.5-1.6,1.7-1l13.2,7.7C41.9,36.5,41.9,37,40.5,37.8Z"/>
  </g>
</svg>
