<svg id="Layer_1" data-name="Layer 1" xmlns="http://www.w3.org/2000/svg" viewBox="0 0 64 64">
  <g>
    <path d="M62.6,36.1a8.7,8.7,0,0,0-17.3.9c-.1,1.3.4,1.8,1.8,1.8H60.8a1.9,1.9,0,0,0,1.9-.9V36.3C62.6,36.3,62.6,36.2,62.6,36.1Zm-3.3.1H48.6c-.5,0-.5-.2-.4-.6a6,6,0,0,1,5.7-4.1,6,6,0,0,1,5.8,4.1C59.9,36.1,59.7,36.2,59.3,36.2Z"/>
    <path d="M33.6,32.6A10.6,10.6,0,0,0,22.8,38a12,12,0,0,0-1.2,6.5c0,1.2.4,1.6,1.6,1.6H40.9c.9,0,1.5-.4,1.5-1.2a20.5,20.5,0,0,0-.1-3.5A10.4,10.4,0,0,0,33.6,32.6Zm5.7,10.9H24.7c-.4,0-.5-.1-.5-.5a7.8,7.8,0,1,1,15.6,0C39.8,43.4,39.7,43.5,39.3,43.5Z"/>
    <path d="M18.7,37.1a7.8,7.8,0,0,0-.2-1.4A8.6,8.6,0,0,0,8.4,29a8.9,8.9,0,0,0-7.1,8.1c0,1.2.5,1.7,1.7,1.7H17.1C18.2,38.8,18.7,38.3,18.7,37.1Zm-3.4-.9H4.7c-.5,0-.6-.1-.4-.6a6.1,6.1,0,0,1,11.5-.1C15.9,36,15.9,36.2,15.3,36.2Z"/>
    <path d="M32,31.5a6.8,6.8,0,1,0-6.8-6.8A6.8,6.8,0,0,0,32,31.5Zm0-11a4.2,4.2,0,1,1-4.2,4.2A4.2,4.2,0,0,1,32,20.5Z"/>
    <path d="M53.9,27.8a5,5,0,1,0,0-9.9,5,5,0,0,0,0,9.9Zm0-7.3a2.6,2.6,0,0,1,2.5,2.3A2.4,2.4,0,0,1,54,25.2a2.3,2.3,0,0,1-2.4-2.3A2.4,2.4,0,0,1,53.9,20.5Z"/>
    <path d="M10.1,27.8A4.8,4.8,0,0,0,15,22.9a4.9,4.9,0,0,0-4.9-5,5.2,5.2,0,0,0-5.1,5A5,5,0,0,0,10.1,27.8Zm0-7.3A2.4,2.4,0,0,1,12.4,23,2.3,2.3,0,0,1,10,25.2a2.4,2.4,0,0,1,.1-4.7Z"/>
    <path d="M17.4,16.9a1.3,1.3,0,0,0,1.3-1.4V13.7c0-.4.1-.5.5-.5h5.3a1.5,1.5,0,0,0,.9-.2,1.3,1.3,0,0,0,.6-1.4,1.4,1.4,0,0,0-1.4-1h-7c-1,0-1.5.5-1.5,1.3v3.6A1.3,1.3,0,0,0,17.4,16.9Z"/>
    <path d="M39.3,13.2h5.4c.5,0,.6.2.6.6v1.5c0,1,.5,1.6,1.3,1.6s1.3-.6,1.3-1.6V12.2c0-1.1-.5-1.6-1.5-1.6H39.5a1.5,1.5,0,0,0-1.2.5,1.2,1.2,0,0,0-.2,1.3A1.2,1.2,0,0,0,39.3,13.2Z"/>
    <path d="M24.7,50.8H19.2c-.4,0-.5-.1-.5-.5V48.6a1.4,1.4,0,0,0-1.3-1.5,1.3,1.3,0,0,0-1.3,1.5v3.2a1.4,1.4,0,0,0,1.6,1.6h6.8a1.3,1.3,0,0,0,1.2-.5,1.2,1.2,0,0,0,.2-1.3A1.4,1.4,0,0,0,24.7,50.8Z"/>
    <path d="M46.6,47.1a1.3,1.3,0,0,0-1.3,1.4v1.8c0,.4-.1.5-.5.5H39.5a1.6,1.6,0,0,0-1,.2,1.4,1.4,0,0,0-.4,1.5c.1.6.6.9,1.3.9h7c1,0,1.5-.5,1.5-1.3V48.5A1.3,1.3,0,0,0,46.6,47.1Z"/>
  </g>
</svg>
