<svg id="Layer_1" data-name="Layer 1" xmlns="http://www.w3.org/2000/svg" viewBox="0 0 64 64">
  <path d="M63,43.4a30.9,30.9,0,0,0-7.3-16.6,30.2,30.2,0,0,0-22.1-11,29.5,29.5,0,0,0-18.7,5.1A30.7,30.7,0,0,0,.9,46.3c-.1,1.5.3,1.9,1.8,1.9H61.4c1.3,0,1.8-.5,1.7-1.8S63.1,44.4,63,43.4ZM28.7,45.6c-.4,0-1,.2-1.2-.1s.3-.8.5-1.1a4.5,4.5,0,0,1,4.7-2.2,4.7,4.7,0,0,1,3.9,3.4Zm13,0H39.4c-.3-.1-.2-.3-.3-.5a4,4,0,0,0-.9-2.1c-.3-.4-.2-.6.1-.9s2.8-2.7,4.1-4.1a1.6,1.6,0,0,0,.6-.8,1.2,1.2,0,0,0-.4-1.3,1.2,1.2,0,0,0-1.4-.2l-.7.5-4.1,4.2c-.3.2-.4.3-.8.1a7.3,7.3,0,0,0-10.7,4.6c-.1.2,0,.4-.3.5H11.5a18.7,18.7,0,0,1,2-7.7c.1-.3.2-.3.5-.1L16,39a1.4,1.4,0,0,0,2-.4c.4-.7.1-1.4-.7-1.9l-1.9-1.1c-.4-.2-.4-.4-.1-.7A22.8,22.8,0,0,1,20.2,30c.3-.2.5-.1.6.2L21.9,32c.5.8,1.2,1.1,1.9.7a1.4,1.4,0,0,0,.3-2L23,28.8c-.1-.2-.1-.3.1-.5a20.3,20.3,0,0,1,7.1-1.9c.4,0,.5.1.5.5v2.2a1.3,1.3,0,1,0,2.6,0V26.8c0-.3.1-.4.4-.4l1.4.2a18,18,0,0,1,5.6,1.6c.4.2.4.4.2.7a16.2,16.2,0,0,0-1,1.8,1.3,1.3,0,0,0,.4,2,1.4,1.4,0,0,0,1.8-.6l1.1-2c.2-.3.3-.3.6-.1a21,21,0,0,1,5.1,5.2c.2.3.2.4-.1.5l-1.9,1.1a1.4,1.4,0,0,0-.7,1.9,1.5,1.5,0,0,0,2,.4L50.1,38c.3-.2.4-.2.5.2a18.8,18.8,0,0,1,1.9,7.4Zm18.7,0c-1.5-.1-3.1,0-4.6,0s-.7-.2-.7-.6a12.6,12.6,0,0,0-.4-2.7,22.5,22.5,0,0,0-7.3-12.7,23,23,0,0,0-28-2.2,24.3,24.3,0,0,0-8.3,9.4,22.1,22.1,0,0,0-2.2,8.1c0,.5-.2.7-.8.7s-3-.1-4.5,0,0-1.2,0-1.8A28.1,28.1,0,0,1,12,26.6a26.5,26.5,0,0,1,13.9-7.5c10.7-2.1,19.8.8,27.2,8.7a27.2,27.2,0,0,1,7.4,17.3C60.5,45.3,60.6,45.5,60.4,45.6Z"/>
</svg>
