<?xml version="1.0" standalone="no"?>
<!DOCTYPE svg PUBLIC "-//W3C//DTD SVG 20010904//EN"
 "http://www.w3.org/TR/2001/REC-SVG-20010904/DTD/svg10.dtd">
<svg version="1.0" xmlns="http://www.w3.org/2000/svg"
 width="500.000000pt" height="500.000000pt" viewBox="0 0 500.000000 500.000000"
 preserveAspectRatio="xMidYMid meet">

<g transform="translate(0.000000,500.000000) scale(0.100000,-0.100000)"
fill="#000000" stroke="none">
<path d="M1809 4396 c-3 -3 -106 -8 -230 -11 -269 -6 -309 -12 -350 -51 -23
-22 -47 -32 -97 -41 -37 -6 -87 -17 -112 -23 -25 -7 -62 -16 -82 -21 -45 -12
-84 -50 -92 -92 -9 -46 -5 -906 5 -1087 19 -345 22 -826 5 -1070 -10 -155 -16
-388 -17 -684 0 -247 -5 -459 -9 -472 -12 -31 2 -68 34 -89 14 -10 59 -22 100
-27 l75 -11 -20 -36 c-10 -20 -19 -41 -19 -47 0 -15 39 -102 40 -89 0 6 10 -1
20 -14 11 -13 20 -21 20 -17 0 3 23 -8 50 -24 28 -17 55 -30 61 -30 5 0 28 -8
52 -18 54 -24 129 -48 192 -61 124 -26 275 -53 325 -57 30 -3 96 -10 145 -16
137 -16 865 -19 1005 -3 63 7 146 16 183 20 37 3 91 11 120 16 29 5 61 11 72
13 11 1 36 6 55 9 19 4 46 9 60 11 46 9 165 45 213 65 26 11 49 21 52 21 3 0
29 12 58 25 57 27 130 91 121 106 -3 5 0 9 7 9 8 0 10 13 6 40 -3 27 -1 40 6
41 265 12 314 23 370 81 25 27 27 35 27 116 0 181 -13 463 -21 450 -5 -7 -9
-112 -10 -233 -1 -121 -5 -233 -8 -250 -7 -29 -8 -28 -14 15 -15 107 -23 1471
-16 2696 5 712 14 647 -94 683 -33 12 -83 21 -110 21 -51 0 -142 32 -167 60
-51 55 -128 71 -335 70 -88 -1 -500 2 -915 5 -416 3 -758 4 -761 1z m1266
-271 c231 -4 536 -8 677 -9 193 -3 262 -7 274 -17 38 -31 40 -55 29 -284 -8
-183 -11 -209 -18 -156 -4 35 -7 130 -7 212 0 156 -2 163 -51 189 -26 14 -673
13 -903 -1 -228 -15 -869 -15 -1126 0 -205 11 -879 15 -917 5 -13 -4 -32 -21
-43 -39 -18 -29 -20 -50 -20 -221 0 -117 -4 -183 -10 -174 -5 9 -10 111 -12
228 l-3 212 25 17 c14 10 38 21 55 25 16 4 224 8 460 9 237 1 547 5 690 9 143
4 310 6 370 4 61 -2 299 -6 530 -9z m-265 -150 c63 -15 139 -38 169 -51 29
-13 59 -24 66 -24 7 0 15 -7 19 -15 4 -11 14 -14 35 -10 19 3 37 -2 54 -15 14
-11 32 -20 40 -20 8 0 22 -11 31 -25 9 -14 23 -25 31 -25 7 0 21 -8 31 -17 9
-10 27 -16 40 -15 15 2 24 -3 29 -18 3 -11 18 -27 33 -35 37 -19 152 -130 152
-146 0 -19 31 -49 52 -49 11 0 18 -7 18 -20 0 -12 9 -24 23 -29 12 -5 30 -18
40 -29 26 -29 87 -132 87 -148 0 -8 10 -14 23 -14 13 0 17 -3 11 -8 -7 -4 -9
-21 -7 -39 5 -34 16 -42 29 -21 9 14 22 -15 23 -52 1 -14 12 -42 26 -61 13
-20 22 -39 19 -42 -6 -5 21 -87 61 -187 20 -50 28 -95 35 -190 10 -131 3 -438
-10 -455 -5 -5 -11 -36 -14 -67 -4 -32 -15 -81 -26 -108 -11 -28 -20 -58 -20
-66 0 -16 -40 -110 -65 -154 -8 -14 -22 -41 -31 -60 -9 -19 -21 -38 -26 -41
-15 -10 -72 -117 -70 -131 5 -24 -287 -317 -346 -348 -26 -14 -50 -30 -54 -36
-4 -7 -19 -15 -33 -18 -13 -3 -29 -15 -35 -26 -6 -11 -18 -20 -26 -20 -9 0
-36 -13 -61 -30 -24 -16 -49 -30 -54 -30 -6 0 -38 -11 -72 -24 -78 -30 -221
-73 -267 -81 -66 -12 -385 -15 -465 -5 -102 12 -208 38 -265 63 -25 11 -80 33
-123 48 -43 15 -86 37 -95 48 -9 10 -48 36 -87 56 -38 21 -72 40 -75 44 -3 3
-23 18 -46 34 -22 15 -55 43 -74 62 -19 19 -39 35 -46 35 -7 0 -15 9 -19 19
-3 11 -12 22 -20 25 -8 3 -15 15 -15 26 0 11 -6 20 -14 20 -25 0 -166 188
-166 221 0 5 -13 24 -30 42 -39 45 -88 139 -95 185 -4 20 -15 57 -25 82 -16
40 -28 93 -35 156 -2 12 -10 34 -18 50 -8 16 -17 64 -19 106 -3 43 -11 84 -18
93 -7 8 -9 22 -6 32 4 9 2 19 -3 22 -11 7 8 163 33 271 8 36 24 106 34 156 11
50 25 100 31 112 6 11 11 32 11 45 0 13 9 36 20 50 11 14 20 39 20 56 0 20 5
31 14 31 8 0 17 14 21 30 4 17 11 30 16 30 5 0 9 7 9 15 0 9 12 28 27 43 15
15 40 53 55 84 40 80 298 338 379 379 32 15 70 40 85 54 15 14 38 28 50 31 12
3 25 12 28 20 3 8 20 14 41 14 19 0 35 4 35 10 0 15 85 50 178 72 48 11 101
25 117 30 17 6 63 14 103 19 41 4 77 11 80 14 4 4 72 5 152 2 110 -4 173 -11
260 -32z m-1596 -91 c20 -8 21 -28 1 -44 -12 -10 -20 -9 -42 5 l-26 18 24 13
c29 16 24 15 43 8z m2660 0 c20 -8 21 -28 2 -43 -9 -8 -21 -8 -40 -1 -40 15
-34 29 21 49 1 1 8 -2 17 -5z m191 -1014 c6 -108 -8 -457 -22 -545 l-6 -40 -8
30 c-17 61 -22 308 -10 561 6 142 15 275 18 294 7 35 11 -3 28 -300z m-3076
-261 c1 -166 -2 -209 -14 -225 -14 -18 -14 -18 -15 6 -1 14 -4 43 -7 65 -9 55
-6 529 3 585 12 73 32 -188 33 -431z m205 -1495 c21 -8 20 -27 -1 -46 -14 -12
-28 -14 -58 -8 -22 4 -30 8 -17 9 12 0 22 5 22 10 0 9 27 41 35 41 2 0 10 -3
19 -6z m2702 -5 c10 -16 -31 -53 -50 -46 -23 9 -32 37 -15 48 20 12 56 11 65
-2z"/>
<path d="M783 3430 c0 -30 2 -43 4 -27 2 15 2 39 0 55 -2 15 -4 2 -4 -28z"/>
<path d="M4236 1928 c-10 -37 -6 -312 4 -328 6 -10 10 46 10 168 0 100 -2 182
-4 182 -2 0 -6 -10 -10 -22z"/>
<path d="M777 1575 c-4 -181 -11 -354 -15 -384 -6 -39 -5 -68 5 -99 7 -25 13
-83 13 -129 0 -54 4 -82 10 -78 6 4 10 157 9 428 -1 568 -12 699 -22 262z"/>
</g>
</svg>
