<svg id="Layer_1" data-name="Layer 1" xmlns="http://www.w3.org/2000/svg" viewBox="0 0 64 64">
  <g>
    <path d="M54.8,54.4c-.4-.3-.6-.4-.2-1a4.6,4.6,0,0,0,.7-4.1,5.4,5.4,0,0,0-3.7-3.9c0-5.6-.1-11.2,0-16.8a2.2,2.2,0,0,0-1.2-2.1,20.7,20.7,0,0,1-3.2-1.9l.8-1.4a1.5,1.5,0,0,0-.4-2.2l-2-1.4a1.1,1.1,0,0,1-.4-.9,9.6,9.6,0,0,0,0-2.4.9.9,0,0,1,.3-.7L47.7,14a1.3,1.3,0,0,0,.4-1.9L44.8,6.4a1.5,1.5,0,0,0-2-.7L40.4,6.8a.6.6,0,0,1-.7-.1,9.4,9.4,0,0,0-2.2-1.2.8.8,0,0,1-.4-.7l-.3-2.5c-.2-1-.6-1.4-1.6-1.4H28.7a1.3,1.3,0,0,0-1.5,1.3A14.9,14.9,0,0,0,27,4.3a1.2,1.2,0,0,1-1,1.4c-.9.2-1.4,1.3-2.3,1.1a8.2,8.2,0,0,1-2.4-1,1.6,1.6,0,0,0-2.3.8l-3,5.3a1.4,1.4,0,0,0,.4,2.2l2,1.5a.8.8,0,0,1,.4.7,5.3,5.3,0,0,0,0,2.5.8.8,0,0,1-.4.7l-2.1,1.6c-.7.5-.8,1.1-.4,2l.8,1.4c0,.4-.3.4-.5.6l-2.6,1.5a2,2,0,0,0-1.2,2.1V44.6c0,.3-.1.6-.1.9a5.2,5.2,0,0,0-2.8,8c.3.4.2.5-.2.8A8.3,8.3,0,0,0,5.2,61c-.2,1.6.4,2.1,1.9,2.1H22.2c6.9-.1,13.9-.2,20.9.1,4.7.1,9.4,0,14.1,0a1.5,1.5,0,0,0,1.6-1.8A8.2,8.2,0,0,0,54.8,54.4Zm-2.1-3.8a2.5,2.5,0,0,1-5-.1,2.5,2.5,0,0,1,5,.1Zm-31-35.4a1.5,1.5,0,0,0-.6-1.1l-1.9-1.4c-.3-.2-.3-.3-.1-.6s1.1-2,1.7-3,.3-.4.6-.2l2,.9A1.3,1.3,0,0,0,25,9.6a12.7,12.7,0,0,1,3.6-2,1.4,1.4,0,0,0,.9-1.2,17.9,17.9,0,0,0,.2-2.3c.1-.3.2-.5.6-.5h3.4a.5.5,0,0,1,.5.5,18,18,0,0,1,.2,2.2,1.4,1.4,0,0,0,1.1,1.3,13.5,13.5,0,0,1,3.3,1.9,1.5,1.5,0,0,0,1.8.3l1.9-.9c.3-.2.5-.1.7.2s1.1,2,1.7,3,.2.4-.1.6L43,14a1.5,1.5,0,0,0-.7,1.6,8.6,8.6,0,0,1,0,3.9,1.5,1.5,0,0,0,.7,1.6,10.9,10.9,0,0,1,1.7,1.3c.3.1.4.3.2.6s-1.2,2-1.7,3-.4.3-.7.2l-2-.9a1.4,1.4,0,0,0-1.6.2,12.2,12.2,0,0,1-3.5,2,1.4,1.4,0,0,0-1,1.3,18,18,0,0,1-.2,2.2c0,.3-.1.5-.6.5H30.3c-.4,0-.5-.1-.5-.5l-.3-2.2a1.3,1.3,0,0,0-1-1.3,11.2,11.2,0,0,1-3.3-2,1.7,1.7,0,0,0-1.8-.2l-2,.9c-.3.1-.5.1-.6-.2s-1.2-2-1.7-3-.2-.4.1-.6L21.1,21a1.6,1.6,0,0,0,.6-1.3A13.6,13.6,0,0,1,21.7,15.2ZM32,40.5A4.5,4.5,0,0,1,36.4,45,4.3,4.3,0,0,1,32,49.3a4.4,4.4,0,0,1-4.5-4.4A4.5,4.5,0,0,1,32,40.5ZM13.8,48.1a2.5,2.5,0,0,1,2.5,2.5A2.4,2.4,0,0,1,13.8,53a2.5,2.5,0,1,1,0-4.9Zm.4,12.2H8.7c-.7,0-.6-.3-.4-.7a5.9,5.9,0,0,1,7.9-3.3,6,6,0,0,1,3.3,4Zm6.9-4.9c-.4.8-.4.8-1,.2a8.6,8.6,0,0,0-1.4-1.3c-.5-.3-.5-.6-.2-1.1a4.9,4.9,0,0,0,.4-4.4,5.4,5.4,0,0,0-3.7-3.5c.3-.3.2-.6.2-1v-14a1.7,1.7,0,0,1,1.1-2,3.6,3.6,0,0,0,1.6-1.1c0,.1,0,.1.1.1a6.4,6.4,0,0,0,.8,1.4,1.6,1.6,0,0,0,2.4.7l1.9-.8a.9.9,0,0,1,1,0l1.8,1.1c.5.2.6.6.7,1.1a15,15,0,0,0,.2,2c.2,1.2.7,1.6,1.9,1.7h1.7a17.1,17.1,0,0,1-.1,3.2,7.4,7.4,0,0,0-5.8,5.9,7.2,7.2,0,0,0,1.7,6.1c.3.4.3.6-.2.8l-.9.5A14.7,14.7,0,0,0,21.1,55.4Zm19.5,4.8H23.2c-.6,0-.6-.2-.5-.7a9.5,9.5,0,0,1,18.5-.2C41.4,60.2,41.4,60.2,40.6,60.2Zm3.1-4.5c-.4.5-.5.4-.8-.1a12.7,12.7,0,0,0-5.3-5.2c-.3-.1-.4-.3-.1-.6a7.4,7.4,0,0,0-4.1-12.1c0-1.1,0-2.1-.1-3.2H35a1.9,1.9,0,0,0,2-2,15.2,15.2,0,0,1,.3-2.1c0-.3.2-.5.5-.7l1.7-1a1.2,1.2,0,0,1,1.3-.1,12.1,12.1,0,0,0,2,.9,1.6,1.6,0,0,0,2.2-.7l.8-1.5a.1.1,0,0,0,.1-.1,4.1,4.1,0,0,0,1.7,1.2,1.6,1.6,0,0,1,.9,1.6V44.5a2.8,2.8,0,0,0,.1.9,5.3,5.3,0,0,0-3,7.9c.3.5.2.7-.3,1A7.3,7.3,0,0,0,43.7,55.7Zm11.6,4.6H45.2c-.6,0-.7-.1-.5-.7a5.9,5.9,0,0,1,7.9-3.3,6.1,6.1,0,0,1,3.1,3.4C55.9,60.1,55.9,60.3,55.3,60.3Z"/>
    <path d="M31.9,23.8A6.3,6.3,0,0,0,32,11.3a6.4,6.4,0,0,0-6.3,6.1A6.3,6.3,0,0,0,31.9,23.8Zm.1-9.7a3.4,3.4,0,0,1,3.4,3.4A3.5,3.5,0,1,1,32,14.1Z"/>
  </g>
</svg>
