<svg id="Layer_1" data-name="Layer 1" xmlns="http://www.w3.org/2000/svg" viewBox="0 0 64 64">
  <g>
    <path d="M62.5,5.5c-1.4-1.3-2.7-2.6-4-4L57.6,1h-.8a4.3,4.3,0,0,0-1,.9L53.2,4.4H7.4A6.1,6.1,0,0,0,1,10.6v34a6.4,6.4,0,0,0,.3,2,6.1,6.1,0,0,0,6.2,4.2q7.5.2,15,0c.4,0,.6.1.5.6s.1,3.4,0,5a3.9,3.9,0,0,1-3.1,3.8,8.2,8.2,0,0,1-2.7.1c-1.2,0-1.7.7-1.7,1.4s.6,1.3,1.6,1.3H43.6a1.3,1.3,0,0,0,1.5-1.3,1.4,1.4,0,0,0-1.5-1.4H41.7a3.9,3.9,0,0,1-4.1-4V51.5c0-.5.1-.7.6-.7,4.9.1,9.8,0,14.7,0h1.8a6.1,6.1,0,0,0,4.9-6.2V10.8a3,3,0,0,1,.8-.8c.8-1,1.9-1.8,2.6-2.8V6.4A1.4,1.4,0,0,0,62.5,5.5ZM57,4.5c.1-.2.2-.3.4-.1l2.2,2.2v.2l-.2.3L57.9,8.7c-.3.3-.4.2-.6,0l-2-2c-.2-.2-.3-.3,0-.6ZM53.1,48.2H7.6a3.7,3.7,0,0,1-3.9-2.9,12.1,12.1,0,0,1,0-1.9c0-.2,0-.3.2-.3s.3,0,.5,0H56.3c.5,0,.7.1.7.7s0,.9-.1,1.3a3.2,3.2,0,0,1-3.1,3ZM25.7,54.3V52.2c0-1.4,0-1.4,1.3-1.4s4.9.1,7.3,0c.5,0,.6.2.6.7v3.7a7.3,7.3,0,0,0,1.3,5.1H24.4C25.8,58.5,25.7,56.4,25.7,54.3ZM53.5,8.6l1.8,1.9c.4.3.3.5,0,.8l-.4.3L43.7,22.9a1.1,1.1,0,0,1-.9.4l-2,.3q-.4,0-.3-.6a14.9,14.9,0,0,0,.2-2.1.9.9,0,0,1,.3-.5L52.4,9.1l.4-.5A.5.5,0,0,1,53.5,8.6ZM42.7,34.8a3.5,3.5,0,0,1,.5-.8,9.8,9.8,0,0,0,2-6.8,3,3,0,0,0-.3-1.6h0c.6-.5,1.2-1.2,1.8-1.8l.6-.6.8-.8c.1.2.3.3.4.4a7.4,7.4,0,0,1,1.7,2.5A6.9,6.9,0,0,1,47,34.2a6.7,6.7,0,0,1-4.4.7C42.6,34.8,42.6,34.8,42.7,34.8Zm-.6-8.6h.1a7.3,7.3,0,0,1-2,7c-.7.6-.7.6-1.4,0a7.1,7.1,0,0,1-1.3-8.7h0a.4.4,0,0,1-.1.3h.2l4.1,1.2Zm-5.3,8.7a6.9,6.9,0,0,1-7.5-3,7.1,7.1,0,0,1,.4-8.4c1.7-2.1,4.9-3.3,7.1-2.5a9.8,9.8,0,0,0-2.9,7A9.4,9.4,0,0,0,36.8,34.9ZM49.3,7.2h.9L38.7,18.8a6.7,6.7,0,0,0-2.8-.6A9.8,9.8,0,1,0,39.1,37a.8.8,0,0,1,.7,0,11.2,11.2,0,0,0,5.4.7,10.1,10.1,0,0,0,8.4-9,10.1,10.1,0,0,0-3.5-8.3h0c2.2-2.2,4.5-4.4,6.7-6.7a3.3,3.3,0,0,0,0,1c0,8.2,0,16.4-.1,24.6,0,1,0,1-.8,1H4.8c-.9,0-.9,0-.9-1V10.4A3.2,3.2,0,0,1,7,7.3H49.3Z"/>
    <path d="M21.9,22.4H20.8a.5.5,0,0,1-.7-.4,4,4,0,0,0-3.6-2.2A3.9,3.9,0,0,0,12.9,22a.5.5,0,0,1-.6.4H7.9a1.4,1.4,0,0,0-1.6,1.4c0,.8.6,1.3,1.6,1.3h4.3c.4,0,.6.1.7.4a4,4,0,0,0,3.5,2.3,3.6,3.6,0,0,0,3.2-1.6,2.1,2.1,0,0,1,2.3-1.1,1.3,1.3,0,0,0,1.3-1.3A1.4,1.4,0,0,0,21.9,22.4Zm-5.4,2.7a1.3,1.3,0,0,1-1.3-1.3,1.5,1.5,0,0,1,1.3-1.4,1.3,1.3,0,0,1,1.3,1.3A1.2,1.2,0,0,1,16.5,25.1Z"/>
    <path d="M6.3,14a1.4,1.4,0,0,0,1.3,1.3c.3,0,.4.1.6.4a3.7,3.7,0,0,0,3.5,2.2,3.6,3.6,0,0,0,3.6-2.2.8.8,0,0,1,.8-.4h5.7a1.6,1.6,0,0,0,.9-.3,1.2,1.2,0,0,0,.4-1.5,1.3,1.3,0,0,0-1.3-.9H16.1a.8.8,0,0,1-.8-.4A3.7,3.7,0,0,0,11.7,10a3.7,3.7,0,0,0-3.5,2.2.9.9,0,0,1-.7.5A1.2,1.2,0,0,0,6.3,14Zm5.5-1.4a1.4,1.4,0,0,1,1.3,1.3,1.4,1.4,0,0,1-1.4,1.4A1.3,1.3,0,0,1,10.4,14,1.4,1.4,0,0,1,11.8,12.6Z"/>
    <path d="M21.6,32.2H16c-.3,0-.5,0-.7-.3a3.7,3.7,0,0,0-3.5-2.3,3.9,3.9,0,0,0-3.7,2.3.7.7,0,0,1-.5.4,1.3,1.3,0,0,0-1.3,1.3,1.3,1.3,0,0,0,1.3,1.3c.3,0,.4.1.5.4a4.1,4.1,0,0,0,3.6,2.3,3.9,3.9,0,0,0,3.7-2.3.5.5,0,0,1,.6-.4h5.6c1,0,1.6-.5,1.6-1.3S22.6,32.2,21.6,32.2Zm-9.8,2.7a1.3,1.3,0,0,1-1.4-1.3,1.4,1.4,0,0,1,1.4-1.4,1.5,1.5,0,0,1,1.3,1.4A1.3,1.3,0,0,1,11.8,34.9Z"/>
  </g>
</svg>
