<svg id="Layer_1" data-name="Layer 1" xmlns="http://www.w3.org/2000/svg" viewBox="0 0 64 64">
  <g>
    <path d="M63.3,17.8h0v-.5c-.3-.2-.2-.6-.3-.9A18.4,18.4,0,1,0,30.2,30.3c0,.1.2.2.1.4H7.4A6.5,6.5,0,0,0,.7,37.3c.1,3,0,6,0,9s0,7.3.1,10.9a6.1,6.1,0,0,0,5.2,6H45.9a3.5,3.5,0,0,0,1.7-.4A6.3,6.3,0,0,0,51.2,57c.1-6.5,0-13,0-19.5a1,1,0,0,1,.8-1.1A18.6,18.6,0,0,0,62.5,25.1a27,27,0,0,0,.8-4.1V18.1h0ZM6.5,63.2Zm38.8,0Zm3.1-6.6a3.7,3.7,0,0,1-3.9,4H7.3a3.6,3.6,0,0,1-3.9-3.9V37.3a3.6,3.6,0,0,1,3.9-3.9H44.5a3.6,3.6,0,0,1,3.9,3.9Zm2.4-22.8c-.4.1-.5.1-.7-.3a6.3,6.3,0,0,0-5.3-2.8H34.6a1.3,1.3,0,0,1-1-.4c-4.2-4.6-5.7-10-3.7-15.9A14.8,14.8,0,0,1,42.2,3.7,15.6,15.6,0,0,1,60.4,17a16.5,16.5,0,0,1,.2,2.1A15.8,15.8,0,0,1,50.8,33.8Z"/>
    <path d="M8.5,46.8H19c1,0,1.5-.5,1.5-1.6V38.4a1.4,1.4,0,0,0-1.6-1.6H8.4a1.3,1.3,0,0,0-1.5,1.5v6.9A1.4,1.4,0,0,0,8.5,46.8Zm1-6.9c0-.4.1-.5.5-.5h7.4c.4,0,.5.1.5.5a24.1,24.1,0,0,0,0,3.8c0,.3-.1.4-.5.4H10c-.4,0-.5-.1-.5-.4A24.1,24.1,0,0,0,9.5,39.9Z"/>
    <path d="M42.8,38.8a1.5,1.5,0,0,0-1.5-.8,1.4,1.4,0,0,0-1.1,1.2,2.1,2.1,0,0,0,.4,1.1,15.1,15.1,0,0,1,1.7,6.2,15.1,15.1,0,0,1-1.8,7.2,1.4,1.4,0,0,0,.4,2.1c.8.4,1.5.1,2-.9A16.6,16.6,0,0,0,45,47a15.3,15.3,0,0,0-.3-3A19.1,19.1,0,0,0,42.8,38.8Z"/>
    <path d="M36.2,40.9a1.3,1.3,0,0,0-.5,1.9,8.7,8.7,0,0,1,0,8.3,1.3,1.3,0,0,0,.5,1.9,1.4,1.4,0,0,0,1.9-.6A12.7,12.7,0,0,0,39.5,47a12.7,12.7,0,0,0-1.4-5.4C37.6,40.8,36.9,40.5,36.2,40.9Z"/>
    <path d="M31.4,43.3a1.4,1.4,0,0,0-.6,1.9,3.6,3.6,0,0,1,0,3.5,1.3,1.3,0,0,0,.6,1.9,1.3,1.3,0,0,0,1.8-.6,7.9,7.9,0,0,0,.8-3,6.1,6.1,0,0,0-.8-3A1.3,1.3,0,0,0,31.4,43.3Z"/>
    <path d="M12.4,54.5H8.3a1.3,1.3,0,0,0-1.4,1.3c-.1.8.5,1.3,1.4,1.4h4.1a1.4,1.4,0,0,0,1.4-1.4A1.3,1.3,0,0,0,12.4,54.5Z"/>
    <path d="M22.1,54.5H18.2c-1,0-1.6.5-1.6,1.3a1.4,1.4,0,0,0,1.6,1.4H22a1.4,1.4,0,0,0,1.6-1.4A1.3,1.3,0,0,0,22.1,54.5Z"/>
    <path d="M44.9,11.6A17.1,17.1,0,0,0,36.3,14a13.1,13.1,0,0,0-3.2,2.5,1.4,1.4,0,0,0,0,1.9,1.4,1.4,0,0,0,1.8.1l.5-.5a14.1,14.1,0,0,1,19.3.4,1.3,1.3,0,0,0,2-.2,1.4,1.4,0,0,0-.4-1.9A16.3,16.3,0,0,0,44.9,11.6Z"/>
    <path d="M44.8,17.1a11.3,11.3,0,0,0-7.6,3.1,1.4,1.4,0,0,0-.2,2.1,1.4,1.4,0,0,0,2-.2,8.4,8.4,0,0,1,11.7.1,1.3,1.3,0,0,0,2,0c.6-.5.5-1.3-.2-2A11.5,11.5,0,0,0,44.8,17.1Z"/>
    <path d="M44.8,22.6a6.4,6.4,0,0,0-4.3,1.8,1.3,1.3,0,0,0,1.7,2l.3-.2a3.5,3.5,0,0,1,4.7,0c.8.7,1.5.7,2.1.1a1.5,1.5,0,0,0-.3-2.1A6.5,6.5,0,0,0,44.8,22.6Z"/>
  </g>
</svg>
