<svg id="Layer_1" data-name="Layer 1" xmlns="http://www.w3.org/2000/svg" viewBox="0 0 64 64">
  <g>
    <path d="M59.9,57.5A11.9,11.9,0,0,0,54,47.7a.7.7,0,0,1-.5-.8c0-2.1.1-4.2,0-6.3A5.6,5.6,0,0,0,49,35.7c-1.5-.2-2.9,0-4.4-.1H43l.7-1a13.9,13.9,0,0,0,2.1-6.3c.1-1,.1-1,1.1-1.1a4.3,4.3,0,0,0,3.9-5.9,6.8,6.8,0,0,1-.3-1.9A18.5,18.5,0,0,0,46.3,7.6C41.2,1.7,34.8-.3,27.2,1.5A17.5,17.5,0,0,0,16.3,9.8a18,18,0,0,0-2.7,9.9,3.5,3.5,0,0,1-.3,1.4,4.1,4.1,0,0,0,.1,3.6,4,4,0,0,0,4.2,2.5c.5,0,.6.1.6.6a13.9,13.9,0,0,0,2.9,7.8H16.8a7.5,7.5,0,0,0-2.1.2,5.5,5.5,0,0,0-4.2,5.6V47a.8.8,0,0,1-.4.7A11,11,0,0,0,5,53.6a14.6,14.6,0,0,0-.9,6.2,3,3,0,0,0,3.3,3.3H56.7a3,3,0,0,0,3.2-3.3ZM10.5,60.3c0,.5-.1.5-.5.5H7.3c-.5,0-.9-.1-.9-.6s-.1-4,.7-5.8a9.7,9.7,0,0,1,3.3-4.2.6.6,0,0,1,.1.4ZM48.9,22.9A2.2,2.2,0,0,1,46.6,25c-.8,0-.7.1-.7-.8V21.5c0-.8-.1-.7.7-.7A2.2,2.2,0,0,1,48.9,22.9Zm-30.7,0v1.7a.4.4,0,0,1-.2.4,2.4,2.4,0,0,1-2.8-1.9,2.2,2.2,0,0,1,2.7-2.3c.3,0,.3.2.3.4Zm-2-4.2c-.4,0-.3-.2-.3-.4a17.8,17.8,0,0,1,.7-3.9,15.5,15.5,0,0,1,6-8.2A16.1,16.1,0,0,1,44.3,8.8a15.4,15.4,0,0,1,3.8,9.4c.1.4,0,.5-.4.4a26.7,26.7,0,0,0-4,0,16.7,16.7,0,0,1-7.3-1.1A6.6,6.6,0,0,1,34.2,16a3.1,3.1,0,0,0-4.4,0,9.5,9.5,0,0,1-5.5,2.4,16,16,0,0,1-4.4.1A23.6,23.6,0,0,0,16.2,18.7ZM20.5,27V21.3c0-.4.1-.4.5-.4a20.6,20.6,0,0,0,6-.8,9.6,9.6,0,0,0,4.2-2.3c.6-.5,1-.5,1.5-.1a12.1,12.1,0,0,0,6.6,3,24.8,24.8,0,0,0,3.8.2c.3,0,.5,0,.5.4,0,2.3.1,4.5-.1,6.8a10.9,10.9,0,0,1-3.2,7.2,1.8,1.8,0,0,1-1,.4H24.7c-.4,0-.6,0-.8-.3A11.3,11.3,0,0,1,20.5,27ZM51.3,60.3c0,.4-.2.5-.6.5H13.3c-.5,0-.6-.1-.6-.6.1-6.2.1-12.5.1-18.7A3.3,3.3,0,0,1,15.2,38H47.6a3.6,3.6,0,0,1,3.7,3.7C51.2,47.8,51.2,54,51.3,60.3Zm5.4.5H53.9c-.2,0-.4,0-.4-.3V50.3h.1a7.2,7.2,0,0,1,2.5,2.7,8.6,8.6,0,0,1,1.5,4.9V60C57.6,60.6,57.3,60.8,56.7,60.8Z"/>
    <path d="M32,44.4a5.3,5.3,0,0,0-5.4,5.3A5.5,5.5,0,0,0,32,55.2a5.4,5.4,0,0,0,5.4-5.4A5.3,5.3,0,0,0,32,44.4Zm0,8.5a3.2,3.2,0,0,1-3.2-3.2A3.3,3.3,0,0,1,32,46.6a3.2,3.2,0,0,1,0,6.3Z"/>
    <path d="M31.9,32.3a4.8,4.8,0,0,0,2.8-1c.6-.6.8-1.2.4-1.7s-1.1-.6-1.8-.1a2,2,0,0,1-2.7,0,1.1,1.1,0,0,0-1.7.2c-.4.5-.2,1.1.4,1.6A4.6,4.6,0,0,0,31.9,32.3Z"/>
  </g>
</svg>
