<svg id="Layer_1" data-name="Layer 1" xmlns="http://www.w3.org/2000/svg" viewBox="0 0 64 64">
  <g>
    <path d="M59.6,23.5c1-1.7.5-1.4,2.4-1.4s1.2-.3,1.5-1.1v-.8a1.6,1.6,0,0,0-1.9-.9H59.7a1.5,1.5,0,0,0-1.5.8c-.6,1.1-1.3,2.2-2,3.3v-.3c-.9-3.2-1.8-6.6-2.8-9.8A7.5,7.5,0,0,0,46.1,8H17.9a7.6,7.6,0,0,0-7.2,5.4L9.6,17.2c-.6,2-1.1,4.2-1.8,6.2L5.7,20.1a1.2,1.2,0,0,0-1.1-.8,28,28,0,0,0-2.9,0A1.3,1.3,0,0,0,.5,20.7a1.2,1.2,0,0,0,1.3,1.2H3.3a.7.7,0,0,1,.6.2L6,25.8H5.7A7.5,7.5,0,0,0,.5,33.3V46.9C.5,48,1,48.5,2,48.5H5.1c.5,0,.6.1.5.5v3.2A3.9,3.9,0,0,0,9.5,56h5a3.8,3.8,0,0,0,3.8-3.9c0-1,.1-2.1,0-3.1s.2-.5.6-.5H45.1c.5,0,.6.1.6.5s0,2,0,3a3.8,3.8,0,0,0,3.9,4h4.8a3.9,3.9,0,0,0,4-4V48.9c0-.3,0-.4.4-.4a28,28,0,0,1,2.9,0,1.7,1.7,0,0,0,1.8-1V32.1a9.8,9.8,0,0,0-.5-2.2,7.7,7.7,0,0,0-4.3-4c-.4-.2-.4-.3-.2-.7ZM10.2,24.8l3-10.5a5,5,0,0,1,4.9-3.6H46a4.8,4.8,0,0,1,4.7,3.5c1.1,3.6,2.1,7.2,3.1,10.8.1.3.1.5-.3.5h-4A9,9,0,0,0,40.1,18,8.9,8.9,0,0,0,32,25.5H10.7C10.2,25.5,10,25.4,10.2,24.8Zm24.9,0a5.9,5.9,0,0,1,5.7-3.9,6,6,0,0,1,5.5,3.6c.1.3.1.6.4.8s-.3.2-.5.2H34.8C35,25.3,35,25,35.1,24.8Zm25.7,8.3V45.3c0,.4-.1.5-.5.5h-19c-.3,0-.5-.1-.4-.5V38.4c0-1.1-.5-1.6-1.7-1.6H24.8c-1.2,0-1.7.5-1.7,1.6s0,4.6.1,6.9c0,.4-.2.5-.6.5H3.7c-.4,0-.5-.1-.5-.5V33.1a4.8,4.8,0,0,1,4.4-4.8H56.4A4.9,4.9,0,0,1,60.8,33.1Z"/>
    <path d="M13.3,31.9A5.2,5.2,0,0,0,8.1,37a5.1,5.1,0,0,0,10.2.1A5,5,0,0,0,13.3,31.9Zm-.1,7.5A2.4,2.4,0,1,1,15.6,37,2.4,2.4,0,0,1,13.2,39.4Z"/>
    <path d="M50.8,31.9A5.1,5.1,0,0,0,45.7,37a5,5,0,0,0,5,5.1,5.1,5.1,0,1,0,.1-10.2Zm-.1,7.5A2.3,2.3,0,0,1,48.4,37a2.4,2.4,0,1,1,2.3,2.4Z"/>
  </g>
</svg>
